<svg id="Layer_1" data-name="Layer 1" xmlns="http://www.w3.org/2000/svg" viewBox="0 0 96.66 52.66"><defs><style>.cls-1{fill:#1d1d1b;}.cls-2{fill:#f8d4b3;}.cls-3{fill:#eb6568;}.cls-4{fill:#f19698;}.cls-5{fill:#f39719;}</style></defs><title>logo</title><path class="cls-1" d="M17,48.28a.3.3,0,0,1,.16.07l.3.31a10.74,10.74,0,0,1-1.36,1.15,7.75,7.75,0,0,1-1.6.89,9.6,9.6,0,0,1-1.9.58,11.49,11.49,0,0,1-2.28.21,9.62,9.62,0,0,1-3.76-.72,8.35,8.35,0,0,1-3-2.06,9.59,9.59,0,0,1-1.95-3.23A12.44,12.44,0,0,1,1,41.22,12.15,12.15,0,0,1,1.67,37a9.48,9.48,0,0,1,2-3.24A8.73,8.73,0,0,1,6.71,31.7,9.94,9.94,0,0,1,10.62,31a9.61,9.61,0,0,1,3.57.61,10.05,10.05,0,0,1,2.9,1.77l-.21.32a.27.27,0,0,1-.23.1.7.7,0,0,1-.29-.16c-.14-.11-.32-.24-.55-.39s-.49-.33-.81-.52a6.92,6.92,0,0,0-1.12-.51,8.55,8.55,0,0,0-1.46-.39,9.06,9.06,0,0,0-1.8-.16,9.18,9.18,0,0,0-3.56.67,7.93,7.93,0,0,0-2.8,1.91,8.71,8.71,0,0,0-1.82,3,12.69,12.69,0,0,0,0,8,8.73,8.73,0,0,0,1.8,3A7.88,7.88,0,0,0,7,50.16a8.71,8.71,0,0,0,3.41.66,12.81,12.81,0,0,0,2.07-.16,8.25,8.25,0,0,0,1.68-.47,7.35,7.35,0,0,0,1.41-.77,13.45,13.45,0,0,0,1.3-1A.24.24,0,0,1,17,48.28Z"/><path class="cls-1" d="M35.07,51.26h-.65a1.1,1.1,0,0,1-.27,0,.61.61,0,0,1-.24-.2l-7.08-8.67a2.05,2.05,0,0,0-.24-.26,1.2,1.2,0,0,0-.27-.16,1.62,1.62,0,0,0-.35-.09,3.68,3.68,0,0,0-.51,0H22.53v9.45h-.78V31.19h4.84a8.21,8.21,0,0,1,5,1.27,4.49,4.49,0,0,1,1.69,3.85,5,5,0,0,1-.44,2.15,5,5,0,0,1-1.24,1.67,6,6,0,0,1-1.94,1.13,8.68,8.68,0,0,1-2.53.5,2,2,0,0,1,.5.43Zm-12.54-10h3.83a8.79,8.79,0,0,0,2.55-.34,5.34,5.34,0,0,0,1.92-1,4.21,4.21,0,0,0,1.22-1.53,4.76,4.76,0,0,0,.42-2A4,4,0,0,0,31,32.91a7.4,7.4,0,0,0-4.37-1.1H22.53Z"/><path class="cls-1" d="M50.67,50.59l0,.67H38.79V31.19H50.64v.67H39.58v8.89H48.9v.66H39.58v9.18Z"/><path class="cls-1" d="M70.1,51.26h-.61a.34.34,0,0,1-.32-.24l-2.61-6.36H56.25L53.64,51a.32.32,0,0,1-.33.24h-.58L61,31.19h.75Zm-3.8-7.2L61.71,32.88a7,7,0,0,1-.3-.85,7,7,0,0,1-.3.85l-4.6,11.18Z"/><path class="cls-1" d="M93.07,31.19V51.26h-.68V32.9a1.77,1.77,0,0,1,0-.23v-.23L84,47.22a.41.41,0,0,1-.34.24h-.15a.4.4,0,0,1-.35-.24L74.46,32.41c0,.09,0,.17,0,.25s0,.16,0,.24V51.26H73.8V31.19h.47a.5.5,0,0,1,.19,0,.31.31,0,0,1,.15.15l8.71,14.79c.09.18.17.36.25.53,0-.09.07-.17.11-.26s.08-.19.13-.28l8.45-14.78a.42.42,0,0,1,.15-.15.54.54,0,0,1,.19,0Z"/><polygon class="cls-2" points="83.51 18.76 94.99 18.76 89.25 30 83.51 41.24 77.77 30 72.03 18.76 83.51 18.76"/><circle class="cls-3" cx="77.71" cy="15.33" r="6.82"/><circle class="cls-4" cx="80.9" cy="7.97" r="6.82"/><circle class="cls-5" cx="89.32" cy="14.79" r="6.82"/><path class="cls-1" d="M24.65,9.35V29.43h-.33a.4.4,0,0,1-.32-.17L10.23,10.64c0,.08,0,.17,0,.26V29.43H9.57V9.35h.36a.48.48,0,0,1,.18,0,.43.43,0,0,1,.16.15L24,28.09a2.46,2.46,0,0,1,0-.26,2.09,2.09,0,0,1,0-.24V9.35Z"/><path class="cls-1" d="M31.64,10.27a1,1,0,0,1-.08.37,1.39,1.39,0,0,1-.23.31,1,1,0,0,1-.67.29A1,1,0,0,1,30,11a1,1,0,0,1-.29-.68A.94.94,0,0,1,30,9.58a1,1,0,0,1,.7-.3.94.94,0,0,1,.36.08.84.84,0,0,1,.31.22,1.19,1.19,0,0,1,.23.31A1,1,0,0,1,31.64,10.27ZM31,15.35V29.43h-.74V15.35Z"/><path class="cls-1" d="M45.52,16.89l-.09.08a.18.18,0,0,1-.11,0,.73.73,0,0,1-.36-.2,4.51,4.51,0,0,0-.67-.45,5.94,5.94,0,0,0-5-.17,4.6,4.6,0,0,0-1.73,1.33,6.14,6.14,0,0,0-1.08,2.1,9.48,9.48,0,0,0-.37,2.77,9.67,9.67,0,0,0,.38,2.82,6.1,6.1,0,0,0,1.07,2.08,4.54,4.54,0,0,0,1.67,1.28,5.15,5.15,0,0,0,2.18.44,5.63,5.63,0,0,0,1.82-.25,5.83,5.83,0,0,0,1.22-.55,4.84,4.84,0,0,0,.74-.56c.17-.17.29-.25.37-.25a.23.23,0,0,1,.19.09l.17.21a3.37,3.37,0,0,1-.71.7,5.48,5.48,0,0,1-1,.61,7.31,7.31,0,0,1-2.85.59,5.89,5.89,0,0,1-2.45-.49A5,5,0,0,1,37,27.7a6.74,6.74,0,0,1-1.21-2.27,10.14,10.14,0,0,1-.43-3,9.87,9.87,0,0,1,.42-3A6.53,6.53,0,0,1,37,17.13a5.38,5.38,0,0,1,2-1.48,6.32,6.32,0,0,1,2.64-.53,6.1,6.1,0,0,1,2.34.42,5.67,5.67,0,0,1,1.77,1.11Z"/><path class="cls-1" d="M59.77,27.7a3.54,3.54,0,0,1-.8.7,6.87,6.87,0,0,1-1.18.61,8.38,8.38,0,0,1-1.44.42,7.66,7.66,0,0,1-1.59.17,6.43,6.43,0,0,1-2.61-.51,5.33,5.33,0,0,1-2-1.46,6.7,6.7,0,0,1-1.27-2.35,10.67,10.67,0,0,1-.44-3.18,9.06,9.06,0,0,1,.42-2.82,6.45,6.45,0,0,1,1.22-2.2,5.43,5.43,0,0,1,2-1.44,6.25,6.25,0,0,1,2.62-.52,5.78,5.78,0,0,1,2.14.4,4.89,4.89,0,0,1,1.73,1.18,5.44,5.44,0,0,1,1.17,1.92,7.52,7.52,0,0,1,.42,2.61c0,.2-.09.3-.26.3H49.22c0,.1,0,.19,0,.28v.29a10.16,10.16,0,0,0,.4,3,6.15,6.15,0,0,0,1.13,2.16,4.75,4.75,0,0,0,1.76,1.32A5.73,5.73,0,0,0,54.8,29a6.65,6.65,0,0,0,2-.25,7.58,7.58,0,0,0,1.39-.55,5.18,5.18,0,0,0,.86-.55,1,1,0,0,1,.4-.25.23.23,0,0,1,.18.09ZM59.45,21a6.62,6.62,0,0,0-.36-2.26,5,5,0,0,0-1-1.68,4.3,4.3,0,0,0-1.51-1,4.88,4.88,0,0,0-1.88-.36,5.8,5.8,0,0,0-2.15.38,4.56,4.56,0,0,0-1.63,1.08,5.46,5.46,0,0,0-1.11,1.68,7.48,7.48,0,0,0-.55,2.2Z"/></svg>