<svg viewBox="0 0 96.66 52.66" xmlns="http://www.w3.org/2000/svg"><g fill="#1d1d1b"><path d="m17 48.28a.3.3 0 0 1 .16.07l.3.31a10.74 10.74 0 0 1 -1.36 1.15 7.75 7.75 0 0 1 -1.6.89 9.6 9.6 0 0 1 -1.9.58 11.49 11.49 0 0 1 -2.28.21 9.62 9.62 0 0 1 -3.76-.72 8.35 8.35 0 0 1 -3-2.06 9.59 9.59 0 0 1 -1.95-3.23 12.44 12.44 0 0 1 -.61-4.26 12.15 12.15 0 0 1 .67-4.22 9.48 9.48 0 0 1 2-3.24 8.73 8.73 0 0 1 3.04-2.06 9.94 9.94 0 0 1 3.91-.7 9.61 9.61 0 0 1 3.57.61 10.05 10.05 0 0 1 2.9 1.77l-.21.32a.27.27 0 0 1 -.23.1.7.7 0 0 1 -.29-.16c-.14-.11-.32-.24-.55-.39s-.49-.33-.81-.52a6.92 6.92 0 0 0 -1.12-.51 8.55 8.55 0 0 0 -1.46-.39 9.06 9.06 0 0 0 -1.8-.16 9.18 9.18 0 0 0 -3.56.67 7.93 7.93 0 0 0 -2.8 1.91 8.71 8.71 0 0 0 -1.82 3 12.69 12.69 0 0 0 0 8 8.73 8.73 0 0 0 1.8 3 7.88 7.88 0 0 0 2.76 1.91 8.71 8.71 0 0 0 3.41.66 12.81 12.81 0 0 0 2.07-.16 8.25 8.25 0 0 0 1.68-.47 7.35 7.35 0 0 0 1.41-.77 13.45 13.45 0 0 0 1.3-1 .24.24 0 0 1 .13-.14z"/><path d="m35.07 51.26h-.65a1.1 1.1 0 0 1 -.27 0 .61.61 0 0 1 -.24-.2l-7.08-8.67a2.05 2.05 0 0 0 -.24-.26 1.2 1.2 0 0 0 -.27-.16 1.62 1.62 0 0 0 -.35-.09 3.68 3.68 0 0 0 -.51 0h-2.93v9.45h-.78v-20.14h4.84a8.21 8.21 0 0 1 5 1.27 4.49 4.49 0 0 1 1.69 3.85 5 5 0 0 1 -.44 2.15 5 5 0 0 1 -1.24 1.67 6 6 0 0 1 -1.94 1.13 8.68 8.68 0 0 1 -2.53.5 2 2 0 0 1 .5.43zm-12.54-10h3.83a8.79 8.79 0 0 0 2.55-.34 5.34 5.34 0 0 0 1.92-1 4.21 4.21 0 0 0 1.22-1.53 4.76 4.76 0 0 0 .42-2 4 4 0 0 0 -1.47-3.48 7.4 7.4 0 0 0 -4.37-1.1h-4.1z"/><path d="m50.67 50.59v.67h-11.88v-20.07h11.85v.67h-11.06v8.89h9.32v.66h-9.32v9.18z"/><path d="m70.1 51.26h-.61a.34.34 0 0 1 -.32-.24l-2.61-6.36h-10.31l-2.61 6.34a.32.32 0 0 1 -.33.24h-.58l8.27-20.05h.75zm-3.8-7.2-4.59-11.18a7 7 0 0 1 -.3-.85 7 7 0 0 1 -.3.85l-4.6 11.18z"/><path d="m93.07 31.19v20.07h-.68v-18.36a1.77 1.77 0 0 1 0-.23v-.23l-8.39 14.78a.41.41 0 0 1 -.34.24h-.15a.4.4 0 0 1 -.35-.24l-8.7-14.81v.25s0 .16 0 .24v18.36h-.66v-20.07h.47a.5.5 0 0 1 .19 0 .31.31 0 0 1 .15.15l8.71 14.79c.09.18.17.36.25.53 0-.09.07-.17.11-.26s.08-.19.13-.28l8.45-14.78a.42.42 0 0 1 .15-.15.54.54 0 0 1 .19 0z"/></g><path d="m83.51 18.76h11.48l-5.74 11.24-5.74 11.24-5.74-11.24-5.74-11.24z" fill="#f8d4b3"/><circle cx="77.71" cy="15.33" fill="#eb6568" r="6.82"/><circle cx="80.9" cy="7.97" fill="#f19698" r="6.82"/><circle cx="89.32" cy="14.79" fill="#f39719" r="6.82"/><path d="m24.65 9.35v20.08h-.33a.4.4 0 0 1 -.32-.17l-13.77-18.62v.26 18.53h-.66v-20.08h.36a.48.48 0 0 1 .18 0 .43.43 0 0 1 .16.15l13.73 18.59a2.46 2.46 0 0 1 0-.26 2.09 2.09 0 0 1 0-.24v-18.24z" fill="#1d1d1b"/><path d="m31.64 10.27a1 1 0 0 1 -.08.37 1.39 1.39 0 0 1 -.23.31 1 1 0 0 1 -.67.29 1 1 0 0 1 -.66-.24 1 1 0 0 1 -.29-.68.94.94 0 0 1 .29-.74 1 1 0 0 1 .7-.3.94.94 0 0 1 .36.08.84.84 0 0 1 .31.22 1.19 1.19 0 0 1 .23.31 1 1 0 0 1 .04.38zm-.64 5.08v14.08h-.74v-14.08z" fill="#1d1d1b"/><path d="m45.52 16.89-.09.08a.18.18 0 0 1 -.11 0 .73.73 0 0 1 -.36-.2 4.51 4.51 0 0 0 -.67-.45 5.94 5.94 0 0 0 -5-.17 4.6 4.6 0 0 0 -1.73 1.33 6.14 6.14 0 0 0 -1.08 2.1 9.48 9.48 0 0 0 -.37 2.77 9.67 9.67 0 0 0 .38 2.82 6.1 6.1 0 0 0 1.07 2.08 4.54 4.54 0 0 0 1.67 1.28 5.15 5.15 0 0 0 2.18.44 5.63 5.63 0 0 0 1.82-.25 5.83 5.83 0 0 0 1.22-.55 4.84 4.84 0 0 0 .74-.56c.17-.17.29-.25.37-.25a.23.23 0 0 1 .19.09l.17.21a3.37 3.37 0 0 1 -.71.7 5.48 5.48 0 0 1 -1 .61 7.31 7.31 0 0 1 -2.85.59 5.89 5.89 0 0 1 -2.45-.49 5 5 0 0 1 -1.91-1.37 6.74 6.74 0 0 1 -1.21-2.27 10.14 10.14 0 0 1 -.43-3 9.87 9.87 0 0 1 .42-3 6.53 6.53 0 0 1 1.22-2.3 5.38 5.38 0 0 1 2-1.48 6.32 6.32 0 0 1 2.64-.53 6.1 6.1 0 0 1 2.34.42 5.67 5.67 0 0 1 1.77 1.11z" fill="#1d1d1b"/><path d="m59.77 27.7a3.54 3.54 0 0 1 -.8.7 6.87 6.87 0 0 1 -1.18.61 8.38 8.38 0 0 1 -1.44.42 7.66 7.66 0 0 1 -1.59.17 6.43 6.43 0 0 1 -2.61-.51 5.33 5.33 0 0 1 -2-1.46 6.7 6.7 0 0 1 -1.27-2.35 10.67 10.67 0 0 1 -.44-3.18 9.06 9.06 0 0 1 .42-2.82 6.45 6.45 0 0 1 1.22-2.2 5.43 5.43 0 0 1 2-1.44 6.25 6.25 0 0 1 2.62-.52 5.78 5.78 0 0 1 2.14.4 4.89 4.89 0 0 1 1.73 1.18 5.44 5.44 0 0 1 1.17 1.92 7.52 7.52 0 0 1 .42 2.61c0 .2-.09.3-.26.3h-10.68v.28.29a10.16 10.16 0 0 0 .4 3 6.15 6.15 0 0 0 1.13 2.16 4.75 4.75 0 0 0 1.76 1.32 5.73 5.73 0 0 0 2.29.42 6.65 6.65 0 0 0 2-.25 7.58 7.58 0 0 0 1.39-.55 5.18 5.18 0 0 0 .86-.55 1 1 0 0 1 .4-.25.23.23 0 0 1 .18.09zm-.32-6.7a6.62 6.62 0 0 0 -.36-2.26 5 5 0 0 0 -1-1.68 4.3 4.3 0 0 0 -1.51-1 4.88 4.88 0 0 0 -1.88-.36 5.8 5.8 0 0 0 -2.15.38 4.56 4.56 0 0 0 -1.63 1.08 5.46 5.46 0 0 0 -1.11 1.68 7.48 7.48 0 0 0 -.55 2.2z" fill="#1d1d1b"/></svg>