<svg id="Layer_1" data-name="Layer 1" xmlns="http://www.w3.org/2000/svg" viewBox="0 0 97 53"><defs><style>.cls-1{fill:#1d1d1b;}.cls-2{fill:#f8d4b3;}.cls-3{fill:#eb6568;}.cls-4{fill:#f19698;}.cls-5{fill:#f39719;}</style></defs><title>logo-01</title><path class="cls-1" d="M17.19,48.44a.33.33,0,0,1,.16.08l.3.31A10.74,10.74,0,0,1,16.29,50a8.24,8.24,0,0,1-1.6.89,9.6,9.6,0,0,1-1.9.58,11.49,11.49,0,0,1-2.28.21,9.62,9.62,0,0,1-3.76-.72,8.48,8.48,0,0,1-3-2.06,9.73,9.73,0,0,1-1.94-3.23,12.44,12.44,0,0,1-.7-4.26,12.15,12.15,0,0,1,.7-4.19,9.48,9.48,0,0,1,2-3.24,8.73,8.73,0,0,1,3.06-2.09,9.94,9.94,0,0,1,3.91-.74,9.61,9.61,0,0,1,3.57.61,10.05,10.05,0,0,1,2.9,1.77l-.21.31a.24.24,0,0,1-.23.1.6.6,0,0,1-.29-.15l-.55-.4q-.33-.23-.81-.51a6.92,6.92,0,0,0-1.12-.51,9.55,9.55,0,0,0-1.46-.4,9.92,9.92,0,0,0-1.8-.15,9.18,9.18,0,0,0-3.56.67,7.93,7.93,0,0,0-2.8,1.91,8.71,8.71,0,0,0-1.82,3,12.69,12.69,0,0,0,0,8,8.73,8.73,0,0,0,1.8,3,7.88,7.88,0,0,0,2.73,1.89,8.71,8.71,0,0,0,3.41.66,12.81,12.81,0,0,0,2.07-.16,8.25,8.25,0,0,0,1.68-.47,7.35,7.35,0,0,0,1.41-.77A12.36,12.36,0,0,0,17,48.54.32.32,0,0,1,17.19,48.44Z"/><path class="cls-1" d="M35.24,51.43h-.65a1.1,1.1,0,0,1-.27,0,.51.51,0,0,1-.24-.21L27,42.52a1.54,1.54,0,0,0-.24-.26,1.2,1.2,0,0,0-.62-.25,3.68,3.68,0,0,0-.51,0H22.7v9.45h-.78V31.35h4.84a8.16,8.16,0,0,1,5,1.28,4.47,4.47,0,0,1,1.7,3.85A5,5,0,0,1,33,38.63a5,5,0,0,1-1.24,1.67,6,6,0,0,1-1.94,1.13,8.68,8.68,0,0,1-2.53.5,2,2,0,0,1,.5.43Zm-12.54-10h3.83A9.15,9.15,0,0,0,29.08,41a5.6,5.6,0,0,0,1.92-1,4.21,4.21,0,0,0,1.22-1.53,4.76,4.76,0,0,0,.42-2,4,4,0,0,0-1.52-3.43A7.34,7.34,0,0,0,26.76,32H22.7Z"/><path class="cls-1" d="M50.84,50.76l0,.67H39V31.35H50.81V32H39.75v8.89h9.32v.66H39.75v9.18Z"/><path class="cls-1" d="M70.27,51.43h-.61a.33.33,0,0,1-.32-.25l-2.61-6.35H56.42l-2.61,6.35a.31.31,0,0,1-.33.25H52.9l8.31-20.08H62Zm-3.8-7.2L61.88,33.05a7,7,0,0,1-.3-.85,7,7,0,0,1-.3.85l-4.6,11.18Z"/><path class="cls-1" d="M93.24,31.35V51.43h-.68V32.84a1.77,1.77,0,0,0,0-.23L84.15,47.39a.41.41,0,0,1-.34.24h-.15a.4.4,0,0,1-.35-.24L74.63,32.58c0,.09,0,.17,0,.25v18.6H74V31.35h.47a.49.49,0,0,1,.19,0,.31.31,0,0,1,.15.15l8.71,14.79c.09.18.17.36.24.53l.12-.26c0-.09.08-.19.13-.28l8.45-14.78a.35.35,0,0,1,.15-.15.53.53,0,0,1,.19,0Z"/><polygon class="cls-2" points="83.68 18.93 95.16 18.93 89.42 30.17 83.68 41.41 77.94 30.17 72.2 18.93 83.68 18.93"/><circle class="cls-3" cx="77.88" cy="15.5" r="6.82"/><circle class="cls-4" cx="81.07" cy="8.14" r="6.82"/><circle class="cls-5" cx="89.49" cy="14.96" r="6.82"/><path class="cls-1" d="M24.82,9.52V29.6h-.33a.4.4,0,0,1-.32-.17L10.4,10.81c0,.08,0,.17,0,.26V29.6H9.74V9.52h.36a.48.48,0,0,1,.18,0,.43.43,0,0,1,.16.15L24.16,28.25a2.11,2.11,0,0,1,0-.25,2.18,2.18,0,0,1,0-.25V9.52Z"/><path class="cls-1" d="M31.81,10.44a.81.81,0,0,1-.09.37,1.26,1.26,0,0,1-.22.31,1,1,0,0,1-.67.29,1,1,0,0,1-.7-.29,1,1,0,0,1-.29-.68,1,1,0,0,1,1-1,1,1,0,0,1,.67.29,1,1,0,0,1,.22.32A.82.82,0,0,1,31.81,10.44Zm-.61,5.08V29.6h-.75V15.52Z"/><path class="cls-1" d="M45.69,17.06l-.09.08a.18.18,0,0,1-.11,0,.73.73,0,0,1-.36-.2,4.51,4.51,0,0,0-.67-.45,5.46,5.46,0,0,0-1.09-.44,5.52,5.52,0,0,0-1.58-.2,5.7,5.7,0,0,0-2.33.46,4.73,4.73,0,0,0-1.73,1.34,6.14,6.14,0,0,0-1.08,2.1,9.48,9.48,0,0,0-.37,2.77,9.77,9.77,0,0,0,.38,2.82,6,6,0,0,0,1.07,2.07,4.46,4.46,0,0,0,1.67,1.29,5.15,5.15,0,0,0,2.18.44,5.63,5.63,0,0,0,1.82-.25,5.83,5.83,0,0,0,1.22-.55,4.84,4.84,0,0,0,.74-.56c.17-.17.29-.25.37-.25a.26.26,0,0,1,.19.08l.17.22a3.37,3.37,0,0,1-.71.7,5.48,5.48,0,0,1-1,.61A7.74,7.74,0,0,1,43,29.6a7,7,0,0,1-1.54.17A6,6,0,0,1,39,29.28a5.06,5.06,0,0,1-1.87-1.41A6.74,6.74,0,0,1,36,25.6a10.19,10.19,0,0,1-.43-3,9.87,9.87,0,0,1,.42-3,6.51,6.51,0,0,1,1.22-2.29,5.5,5.5,0,0,1,2-1.48,6.32,6.32,0,0,1,2.64-.53,6.1,6.1,0,0,1,2.34.42,5.67,5.67,0,0,1,1.77,1.11Z"/><path class="cls-1" d="M59.94,27.87a3.54,3.54,0,0,1-.8.7,6.87,6.87,0,0,1-1.18.61,9.38,9.38,0,0,1-1.44.42,7.66,7.66,0,0,1-1.59.17,6.43,6.43,0,0,1-2.61-.51,5.33,5.33,0,0,1-2-1.46,6.7,6.7,0,0,1-1.27-2.35,10.67,10.67,0,0,1-.44-3.18,9,9,0,0,1,.42-2.82,6.45,6.45,0,0,1,1.22-2.2,5.43,5.43,0,0,1,2-1.44,6.25,6.25,0,0,1,2.62-.52,5.58,5.58,0,0,1,2.14.4,4.89,4.89,0,0,1,1.73,1.18,5.44,5.44,0,0,1,1.17,1.92,7.52,7.52,0,0,1,.42,2.61c0,.2-.09.3-.26.3H49.39c0,.1,0,.19,0,.28v.29a9.84,9.84,0,0,0,.4,3A6.15,6.15,0,0,0,50.9,27.4a4.68,4.68,0,0,0,1.76,1.32,5.73,5.73,0,0,0,2.31.45,7,7,0,0,0,2-.25,7.58,7.58,0,0,0,1.39-.55,5.18,5.18,0,0,0,.86-.55,1,1,0,0,1,.4-.25.25.25,0,0,1,.18.08Zm-.32-6.67a6.58,6.58,0,0,0-.36-2.26,5,5,0,0,0-1-1.68,4.17,4.17,0,0,0-1.51-1,4.88,4.88,0,0,0-1.88-.36,5.8,5.8,0,0,0-2.15.38,4.69,4.69,0,0,0-1.64,1.08A5.62,5.62,0,0,0,50,19a7.48,7.48,0,0,0-.55,2.2Z"/></svg>